<svg width="30" height="30" xmlns="http://www.w3.org/2000/svg" xmlns:svg="http://www.w3.org/2000/svg">
    <symbol id="muteBtn">
    <g>
        <path
                d="m14.90822,4.89683c-0.1951,0 -0.3902,0.04645 -0.53885,0.14865l-8.82606,4.38516l-4.23651,0c-0.73396,0 -1.31927,0.58531 -1.31927,1.31927l0,9.11407c0,0.67822 0.58531,1.26352 1.31927,1.26352l4.23651,0l8.82606,4.43161c0.82686,0.43666 1.84883,-0.1951 1.84883,-1.17062l0,-18.1817c0.00929,-0.72467 -0.57602,-1.30998 -1.30998,-1.30998l0,0.00001l0,0.00001zm-1.26352,17.40129l-7.21879,-3.60475c-0.1951,-0.0929 -0.3902,-0.14865 -0.58531,-0.14865l-3.27029,0l0,-6.48484l3.27958,0c0.1951,0 0.3902,-0.04645 0.58531,-0.14865l7.20951,-3.60475l0,13.99164l0,-0.00001l-0.00001,0.00001z"
        />
        <path  d="m29.47588,18.94422l0,0l-3.61405,-3.63262l3.62333,-3.62333c0.87332,-0.82686 0.24156,-2.23903 -0.92905,-2.23903c-0.34375,0.04645 -0.67822,0.14865 -0.87332,0.3902l-3.64192,3.66049l-3.64192,-3.66049c-0.24156,-0.24156 -0.58531,-0.3902 -0.92905,-0.3902c-1.17062,0 -1.75593,1.41217 -0.92905,2.23903l3.66049,3.64192l-3.60475,3.62333c-1.31927,1.21707 0.58531,3.07519 1.80237,1.80237l3.61405,-3.61405l3.63262,3.61405c1.24494,1.25423 3.09377,-0.5946 1.83025,-1.81166l-0.00001,0l0,-0.00001l0.00001,0z"/>

    </g>
    </symbol>
</svg>