<svg width="30" height="30" xmlns="http://www.w3.org/2000/svg" xmlns:svg="http://www.w3.org/2000/svg">
    <symbol id="unmuteBtn">
        <g>
            <path
                  d="m14.90822,4.89683c-0.1951,0 -0.3902,0.04645 -0.53885,0.14865l-8.82606,4.38516l-4.23651,0c-0.73396,0 -1.31927,0.58531 -1.31927,1.31927l0,9.11407c0,0.67822 0.58531,1.26352 1.31927,1.26352l4.23651,0l8.82606,4.43161c0.82686,0.43666 1.84883,-0.1951 1.84883,-1.17062l0,-18.1817c0.00929,-0.72467 -0.57602,-1.30998 -1.30998,-1.30998l0,0.00001l0,0.00001zm-1.26352,17.40129l-7.21879,-3.60475c-0.1951,-0.0929 -0.3902,-0.14865 -0.58531,-0.14865l-3.27029,0l0,-6.48484l3.27958,0c0.1951,0 0.3902,-0.04645 0.58531,-0.14865l7.20951,-3.60475l0,13.99164l0,-0.00001l-0.00001,0.00001z"
            />
            <path
                  d="m20.57584,10.97377l0,0c-0.65949,0 -1.18541,0.63054 -1.18541,1.42122l0,4.88418c0,1.89162 2.37081,1.89162 2.37081,0l0,-4.88418c0,-0.79068 -0.52592,-1.48127 -1.18541,-1.42122l0.00001,0z" />
            <path
                  d="m24.64964,8.50166c-0.65949,0 -1.18541,0.63054 -1.14366,1.42122l0,9.8184c-0.04174,1.89162 2.37081,1.89162 2.32072,0l0,-9.8184c0.00835,-0.79068 -0.51757,-1.42122 -1.17706,-1.42122z" />
            <path
                  d="m28.73176,6.02954c-0.61774,0.05004 -1.14366,0.68058 -1.14366,1.42122l0,14.70259c-0.04174,1.89162 2.37081,1.89162 2.32072,0l0,-14.70259c0.05009,-0.79068 -0.51757,-1.42122 -1.17706,-1.42122z" />
        </g>
    </symbol>
</svg>